{
	"asset":{
		"generator":"Khronos glTF Blender I/O v4.1.62",
		"version":"2.0"
	},
	"scene":0,
	"scenes":[
		{
			"name":"Scene",
			"nodes":[
				0
			]
		}
	],
	"nodes":[
		{
			"mesh":0,
			"name":"Mesh_0"
		}
	],
	"materials":[
		{
			"name":"Material_0",
			"pbrMetallicRoughness":{
				"baseColorTexture":{
					"index":0
				},
				"metallicFactor":0
			}
		}
	],
	"meshes":[
		{
			"name":"Mesh_0",
			"primitives":[
				{
					"attributes":{
						"POSITION":0,
						"NORMAL":1,
						"TEXCOORD_0":2
					},
					"indices":3,
					"material":0
				}
			]
		}
	],
	"textures":[
		{
			"sampler":0,
			"source":0
		}
	],
	"images":[
		{
			"mimeType":"image/jpeg",
			"name":"matchbox",
			"uri":"textures/matchbox.jpg"
		}
	],
	"accessors":[
		{
			"bufferView":0,
			"componentType":5126,
			"count":43361,
			"max":[
				0.16505762934684753,
				0.1176476776599884,
				0.20244590938091278
			],
			"min":[
				-0.16889755427837372,
				-3.725290076417309e-09,
				-0.2026728242635727
			],
			"type":"VEC3"
		},
		{
			"bufferView":1,
			"componentType":5126,
			"count":43361,
			"type":"VEC3"
		},
		{
			"bufferView":2,
			"componentType":5126,
			"count":43361,
			"type":"VEC2"
		},
		{
			"bufferView":3,
			"componentType":5123,
			"count":43368,
			"type":"SCALAR"
		}
	],
	"bufferViews":[
		{
			"buffer":0,
			"byteLength":520332,
			"byteOffset":0,
			"target":34962
		},
		{
			"buffer":0,
			"byteLength":520332,
			"byteOffset":520332,
			"target":34962
		},
		{
			"buffer":0,
			"byteLength":346888,
			"byteOffset":1040664,
			"target":34962
		},
		{
			"buffer":0,
			"byteLength":86736,
			"byteOffset":1387552,
			"target":34963
		}
	],
	"samplers":[
		{
			"magFilter":9729,
			"minFilter":9987
		}
	],
	"buffers":[
		{
			"byteLength":1474288,
			"uri":"finalmatch.bin"
		}
	]
}
